<svg width="65" height="126" viewBox="0 0 65 126" fill="none" xmlns="http://www.w3.org/2000/svg">
<path d="M44.8648 0.240753C47.1191 0.240753 48.9636 0.701864 50.3981 1.62409C51.8327 2.54631 53.0111 3.7247 53.9333 5.15927C54.958 6.90125 55.6753 8.69446 56.0852 10.5389C56.3926 12.4858 56.5463 14.0741 56.5463 15.3037C56.5463 20.3247 55.2654 24.8846 52.7037 28.9833C50.142 33.0821 46.1457 36.4124 40.7148 38.9741L39.3315 36.2074C42.508 34.8753 45.2747 32.7747 47.6315 29.9056C49.8858 27.0364 51.013 24.1161 51.013 21.1445C51.013 19.9148 50.8593 18.8389 50.5518 17.9167C48.9123 19.2488 47.0167 19.9148 44.8648 19.9148C42.2006 19.9148 39.8951 19.0438 37.9481 17.3019C36.0012 15.5599 35.0278 13.1519 35.0278 10.0778C35.0278 7.20866 36.0012 4.85187 37.9481 3.00742C39.8951 1.16298 42.2006 0.240753 44.8648 0.240753ZM18.7352 0.240753C20.9895 0.240753 22.8339 0.701864 24.2685 1.62409C25.7031 2.54631 26.8815 3.7247 27.8037 5.15927C28.8284 6.90125 29.5457 8.69446 29.9555 10.5389C30.263 12.4858 30.4167 14.0741 30.4167 15.3037C30.4167 20.3247 29.1358 24.8846 26.5741 28.9833C24.0123 33.0821 20.016 36.4124 14.5852 38.9741L13.2018 36.2074C16.3784 34.8753 19.1451 32.7747 21.5018 29.9056C23.7562 27.0364 24.8833 24.1161 24.8833 21.1445C24.8833 19.9148 24.7296 18.8389 24.4222 17.9167C22.7827 19.2488 20.887 19.9148 18.7352 19.9148C16.071 19.9148 13.7654 19.0438 11.8185 17.3019C9.8716 15.5599 8.89814 13.1519 8.89814 10.0778C8.89814 7.20866 9.8716 4.85187 11.8185 3.00742C13.7654 1.16298 16.071 0.240753 18.7352 0.240753Z" fill="white"/>
</svg>
