<svg width="65" height="126" viewBox="0 0 65 126" fill="none" xmlns="http://www.w3.org/2000/svg">
<path d="M20.1352 125.759C17.8809 125.759 16.0364 125.298 14.6019 124.376C13.1673 123.454 11.9889 122.275 11.0667 120.841C10.042 119.099 9.32469 117.306 8.91482 115.461C8.60741 113.514 8.45371 111.926 8.45371 110.696C8.45371 105.675 9.73457 101.115 12.2963 97.0167C14.858 92.9179 18.8543 89.5876 24.2852 87.0259L25.6685 89.7926C22.492 91.1247 19.7253 93.2253 17.3685 96.0944C15.1142 98.9636 13.987 101.884 13.987 104.856C13.987 106.085 14.1407 107.161 14.4482 108.083C16.0877 106.751 17.9833 106.085 20.1352 106.085C22.7994 106.085 25.1049 106.956 27.0519 108.698C28.9988 110.44 29.9722 112.848 29.9722 115.922C29.9722 118.791 28.9988 121.148 27.0519 122.993C25.1049 124.837 22.7994 125.759 20.1352 125.759ZM46.2648 125.759C44.0105 125.759 42.1661 125.298 40.7315 124.376C39.2969 123.454 38.1185 122.275 37.1963 120.841C36.1716 119.099 35.4543 117.306 35.0445 115.461C34.737 113.514 34.5833 111.926 34.5833 110.696C34.5833 105.675 35.8642 101.115 38.4259 97.0167C40.9877 92.9179 44.984 89.5876 50.4148 87.0259L51.7982 89.7926C48.6216 91.1247 45.8549 93.2253 43.4982 96.0944C41.2438 98.9636 40.1167 101.884 40.1167 104.856C40.1167 106.085 40.2704 107.161 40.5778 108.083C42.2173 106.751 44.113 106.085 46.2648 106.085C48.929 106.085 51.2346 106.956 53.1815 108.698C55.1284 110.44 56.1019 112.848 56.1019 115.922C56.1019 118.791 55.1284 121.148 53.1815 122.993C51.2346 124.837 48.929 125.759 46.2648 125.759Z" fill="white"/>
</svg>
