<svg width="24" height="24" viewBox="0 0 24 24" fill="none" xmlns="http://www.w3.org/2000/svg">
<path d="M16.6308 10.869C16.5743 10.811 16.3609 10.563 16.1622 10.359C14.9971 9.076 11.9576 6.976 10.3668 6.335C10.1252 6.232 9.51437 6.014 9.18802 6C8.8753 6 8.5772 6.072 8.29274 6.218C7.93814 6.422 7.65368 6.743 7.49781 7.122C7.39747 7.385 7.2416 8.172 7.2416 8.186C7.08573 9.047 7 10.446 7 11.992C7 13.465 7.08573 14.807 7.21335 15.681C7.22796 15.695 7.38383 16.673 7.55431 17.008C7.86702 17.62 8.47784 18 9.13152 18H9.18802C9.61374 17.985 10.509 17.605 10.509 17.591C12.0141 16.949 14.9834 14.952 16.1768 13.625C16.1768 13.625 16.5129 13.284 16.659 13.071C16.887 12.765 17 12.386 17 12.007C17 11.584 16.8724 11.19 16.6308 10.869" fill="#3E8847"/>
</svg>
