<svg width="48" height="48" viewBox="0 0 48 48" fill="none" xmlns="http://www.w3.org/2000/svg">
<path d="M3.91321 0.662074C2.2534 1.12571 0.871762 2.3868 0.287581 3.98171C0.0186727 4.6957 -0.0833271 6.2257 0.0928544 7.00461C0.426672 8.56242 1.50231 9.8977 3.04158 10.6673C3.7463 11.0197 3.89467 11.131 3.8483 11.2608C3.69067 11.6131 3.69067 12.3828 3.83903 12.8279C4.06158 13.4862 4.54376 13.9313 5.55448 14.395C6.53739 14.8586 6.73212 14.8864 7.08448 14.6082C7.26993 14.4599 7.32557 14.3393 7.32557 14.0704C7.32557 13.6346 7.20502 13.5233 6.27775 13.0782C5.52666 12.7259 5.19285 12.4106 5.19285 12.0768C5.19285 11.8821 9.56957 4.58443 9.70866 4.53807C9.77357 4.51025 20.1034 9.2857 20.1961 9.37842C20.2054 9.3877 19.6119 11.2051 18.8701 13.4213C18.0077 15.9991 17.4514 17.5106 17.3216 17.6497C17.1917 17.7888 17.0156 17.863 16.8301 17.863C16.6446 17.863 15.2908 17.2788 13.1581 16.2866C11.3036 15.4242 9.66229 14.7102 9.5232 14.7102C8.95757 14.7102 8.6052 15.4706 8.97611 15.8971C9.05957 15.9991 10.6823 16.8059 12.5647 17.6868C15.7174 19.1519 16.0419 19.291 16.6168 19.328C17.9057 19.4115 18.6568 18.8273 19.139 17.3251L19.3059 16.843H19.9921C20.3723 16.843 22.1897 16.778 24.0165 16.6946L27.3546 16.5555L28.7919 17.2973C30.0159 17.9279 30.3126 18.0484 30.6835 18.0484C31.175 18.0484 31.6015 17.8166 31.9353 17.3715C32.1208 17.1211 32.1301 16.982 32.1579 14.4135C32.1857 11.845 32.1764 11.7059 31.991 11.3257C31.7777 10.8806 31.4717 10.6395 30.9803 10.5282C30.5074 10.417 30.1457 10.5468 28.6899 11.3071L27.401 11.9841L24.2483 11.8542C22.5143 11.7801 21.0863 11.7151 21.077 11.7059C21.0677 11.6966 21.383 10.6859 21.791 9.46188C22.199 8.23788 22.5328 7.08806 22.5328 6.88406C22.5328 6.29061 22.3288 5.80843 21.8837 5.33552C21.4943 4.91825 21.1141 4.72352 16.8301 2.73916C12.6017 0.773347 12.1567 0.587892 11.6837 0.57862C10.979 0.569347 10.3856 0.81971 9.9312 1.31116C9.71793 1.54298 9.55102 1.76553 9.55102 1.81189C9.55102 1.85825 9.07811 1.68207 8.51248 1.41316C7.93757 1.13498 7.26066 0.838256 7.00102 0.754801C6.37048 0.522983 4.59012 0.47662 3.91321 0.662074ZM6.42612 2.14571C6.63939 2.21989 7.25139 2.47953 7.77066 2.72062L8.71648 3.16571L8.32702 3.8148C8.12302 4.16716 7.93757 4.47316 7.9283 4.4917C7.91902 4.50098 7.45539 4.30625 6.89903 4.04661C5.81412 3.55516 5.2763 3.47171 4.53448 3.68498C3.68139 3.94461 3.06012 4.84407 3.06012 5.83625C3.06012 6.86552 3.52376 7.49606 4.72921 8.08024C5.13721 8.27497 5.47103 8.46043 5.47103 8.49752C5.47103 8.52533 5.28557 8.82206 5.0723 9.16515L4.67357 9.7957L3.91321 9.42479C2.22558 8.61806 1.41885 7.33843 1.50231 5.63225C1.53012 4.97389 1.59503 4.71425 1.82685 4.20425C2.29976 3.21207 3.14358 2.47953 4.21921 2.13644C4.72921 1.9788 5.93466 1.9788 6.42612 2.14571ZM16.3016 4.16716C20.6412 6.18861 21.0492 6.41116 21.0492 6.82843C21.0492 6.94897 20.7895 7.83915 20.7246 7.92261C20.7061 7.94115 10.5617 3.23062 10.5061 3.17498C10.4968 3.16571 10.6174 2.95243 10.7843 2.70207C11.1088 2.20134 11.4427 1.9788 11.7301 2.06225C11.8321 2.09934 13.8907 3.03589 16.3016 4.16716ZM6.27775 5.4097C6.7043 5.60443 7.04739 5.79916 7.04739 5.84552C7.04739 5.91043 6.46321 6.9397 6.33339 7.09734C6.27775 7.17152 5.0723 6.60588 4.81266 6.38334C4.4603 6.09588 4.44176 5.62298 4.77557 5.29843C5.08157 4.98316 5.38757 5.0017 6.27775 5.4097ZM30.6928 14.3022C30.6928 15.5541 30.665 16.5648 30.6186 16.5462C30.5815 16.5277 30.0437 16.2495 29.4132 15.925L28.2726 15.3315L28.3004 14.2651L28.3283 13.2081L29.441 12.6146C30.053 12.2901 30.5815 12.0211 30.6279 12.0211C30.665 12.0211 30.6928 13.0504 30.6928 14.3022ZM23.831 13.3193C24.9345 13.375 26.0472 13.4121 26.3161 13.4121H26.7983V14.2373V15.0626L26.1306 15.1182C24.9345 15.211 19.9272 15.3871 19.8808 15.3315C19.853 15.3037 19.9828 14.803 20.1776 14.2188L20.5299 13.1524L21.179 13.1895C21.5406 13.2081 22.7368 13.273 23.831 13.3193Z" fill="white"/>
<path d="M33.9846 12.9948C33.4561 13.5141 33.8177 14.1724 34.6893 14.293C34.9675 14.3301 35.5332 14.4599 35.9597 14.5804C36.377 14.701 36.7943 14.803 36.887 14.803C37.3784 14.803 37.7123 14.089 37.4248 13.6439C37.2672 13.4028 36.5995 13.1617 35.3848 12.9113C34.4483 12.7166 34.2443 12.7259 33.9846 12.9948Z" fill="white"/>
<path d="M39.3629 15.1275C38.9734 15.5077 39.0476 15.8693 39.6225 16.3701C41.6347 18.1319 42.5527 19.8102 42.9236 22.4437C43.0348 23.2133 43.2018 23.4266 43.6932 23.4266C44.4165 23.4266 44.5648 22.9259 44.2774 21.4144C43.7859 18.8459 42.4043 16.5555 40.4849 15.1553C40.0398 14.8308 39.6596 14.8215 39.3629 15.1275Z" fill="white"/>
<path d="M34.1515 15.9156C33.9197 16.0084 33.7528 16.2773 33.7528 16.5647C33.7528 16.6667 33.9012 17.0469 34.0774 17.4085C34.7264 18.6882 35.2364 20.6633 35.2364 21.9336C35.2457 22.6198 35.3755 23.1576 35.5703 23.306C35.8299 23.4914 36.3863 23.4544 36.581 23.2411C36.7201 23.0834 36.7479 22.9073 36.7293 22.1469C36.6923 20.1533 36.0803 17.7795 35.2179 16.3236C34.9583 15.8785 34.5966 15.7395 34.1515 15.9156Z" fill="white"/>
<path d="M7.46453 25.2255C6.71344 25.55 6.11999 26.4309 6.11999 27.2098C6.11999 27.5622 6.10144 27.6085 5.94381 27.5529C5.23908 27.3304 3.38454 27.3582 2.652 27.5993C2.23472 27.7291 1.79891 28.2298 1.65054 28.7305C1.47436 29.3518 1.50218 31.2434 1.70618 31.9018C2.29036 33.8305 3.69981 35.2863 5.56363 35.8613L6.07363 36.0189V37.5582V39.1067L5.23908 39.3849C3.36599 40.0154 1.78963 41.2302 0.667635 42.9271C0.0278181 43.9007 0 43.9842 0 45.2452C0 46.5249 0.120545 46.8958 0.658363 47.4151C1.24254 47.9714 1.41872 47.9992 3.96872 47.9992C6.17563 47.9992 6.2869 47.99 6.44453 47.8138C6.66708 47.5634 6.66708 47.0441 6.45381 46.8031C6.29617 46.6361 6.14781 46.6176 4.12636 46.5898C1.98436 46.562 1.95654 46.562 1.72472 46.3394C1.50218 46.1262 1.48363 46.052 1.48363 45.2731C1.48363 44.4292 1.48363 44.4292 1.89163 43.8265C2.95799 42.2409 4.27472 41.2487 6.07363 40.6738C7.05653 40.3585 9.11508 40.3029 10.2185 40.5718C12.0545 41.0076 13.5382 41.9905 14.6602 43.5205C15.1423 44.1696 15.6709 44.4292 16.3014 44.3365C16.7651 44.2716 16.7929 44.2438 18.1096 42.7787C19.5376 41.1838 21.4014 40.3956 23.7381 40.3956C26.0749 40.3956 27.9387 41.1838 29.3667 42.7787C30.6834 44.2438 30.7112 44.2716 31.1749 44.3365C31.8054 44.4292 32.3339 44.1696 32.8161 43.5205C33.9381 41.9998 35.4403 41.0076 37.2578 40.5718C38.3612 40.3029 40.4197 40.3585 41.4027 40.6738C43.2016 41.2487 44.5368 42.2502 45.5846 43.8265C45.9834 44.42 45.9926 44.4478 46.0019 45.2545C46.0112 46.0242 46.0019 46.0891 45.7701 46.3209L45.529 46.562L27.1134 46.6083C9.02235 46.6547 8.6978 46.6547 8.56799 46.8309C8.37326 47.0998 8.40108 47.5912 8.62362 47.8138C8.80908 47.9992 8.92962 47.9992 27.3081 47.9992C47.7452 47.9992 46.1503 48.0456 46.8179 47.4151C47.3557 46.8958 47.4763 46.5249 47.4763 45.2452C47.4763 43.9842 47.4485 43.9007 46.8086 42.9271C45.6774 41.2302 44.1103 40.0154 42.2372 39.3849L41.4027 39.1067V37.5674V36.0282L42.1537 35.7778C43.9156 35.1658 45.2045 33.7934 45.7701 31.9018C45.9741 31.2342 46.0019 29.3518 45.8165 28.712C45.5383 27.7569 44.8243 27.4138 43.1088 27.4045C42.3207 27.3953 42.0332 27.4324 41.5232 27.5715C41.3841 27.6085 41.3563 27.5436 41.3563 27.2098C41.3563 26.4216 40.7536 25.5407 39.9932 25.2162C39.8263 25.1513 39.4276 25.0956 39.103 25.0956C38.0459 25.0956 37.2299 25.6798 36.9425 26.6535C36.8683 26.8853 36.8127 27.1913 36.8127 27.3396C36.8127 27.5807 36.7848 27.5993 36.6087 27.5436C36.1914 27.4138 35.2363 27.3582 34.411 27.4231C32.9181 27.5436 32.4545 27.9887 32.2783 29.4538C32.0929 30.956 32.4174 32.3933 33.2149 33.5802C33.9474 34.6929 34.9952 35.4718 36.2563 35.8613L36.7663 36.0189V37.5674V39.116L36.1172 39.32C34.309 39.8949 32.8161 41.0076 31.453 42.8065C31.4345 42.8343 31.3325 42.7231 31.2212 42.5747C30.8225 42.0091 29.719 40.9427 29.0792 40.5069C28.2354 39.9227 27.7532 39.6816 26.8445 39.3663L26.1027 39.116L26.0749 37.5396L26.0563 35.9633L26.3994 35.8983C26.928 35.8056 27.985 35.2585 28.5414 34.8042C29.4965 34.016 30.1919 32.8662 30.4701 31.6051C30.637 30.8447 30.6092 29.2313 30.4238 28.6007C30.2754 28.1185 29.8396 27.7198 29.2739 27.5529C28.7361 27.3953 26.9743 27.3582 26.4087 27.4973L26.0656 27.5807L26.0007 27.1449C25.8152 25.8467 24.99 25.0956 23.7381 25.0956C22.4863 25.0956 21.6611 25.8467 21.4756 27.1449L21.4107 27.5807L21.0676 27.4973C20.502 27.3582 18.7401 27.3953 18.2023 27.5529C17.6182 27.7291 17.2009 28.1185 17.0432 28.6471C16.9691 28.8696 16.9227 29.5373 16.9227 30.242C16.9227 31.2342 16.9598 31.568 17.1267 32.0965C17.6831 33.8584 19.0832 35.2863 20.7431 35.7871L21.42 35.9911L21.4014 37.5582L21.3736 39.116L20.6318 39.3663C19.7231 39.6816 19.2409 39.9227 18.3971 40.5069C17.7572 40.9427 16.6538 42.0091 16.2551 42.5747C16.1438 42.7231 16.0418 42.8343 16.0232 42.8065C14.6602 41.0076 13.1673 39.8949 11.3591 39.32L10.71 39.116V37.5674V36.0189L11.22 35.8613C12.4811 35.4718 13.5289 34.6929 14.2614 33.5802C15.0589 32.4025 15.3834 30.956 15.2072 29.4816C15.1516 29.0644 15.0867 28.6378 15.0496 28.5544C14.9198 28.202 14.6231 27.8682 14.2614 27.6827C13.6587 27.3767 11.6651 27.2933 10.8769 27.5436C10.6822 27.6085 10.6636 27.5807 10.6636 27.2933C10.6636 26.4958 10.1629 25.6891 9.43035 25.3275C8.89253 25.0585 7.95599 25.0122 7.46453 25.2255ZM8.88326 26.7647C9.13362 26.9965 9.19853 27.2562 9.16144 27.8218C9.13362 28.2298 9.09653 28.2947 8.74417 28.5451L8.35471 28.8325L7.9838 28.5265C7.6129 28.2391 7.60362 28.2205 7.60362 27.6364C7.60362 27.1171 7.64071 27.0058 7.83544 26.8111C8.11362 26.5236 8.5958 26.5051 8.88326 26.7647ZM24.2852 26.8018C24.4429 26.978 24.5078 27.1727 24.5449 27.6178L24.5912 28.202L24.1647 28.508L23.7381 28.814L23.3116 28.508L22.8851 28.202L22.9314 27.6178C22.9685 27.1727 23.0334 26.978 23.1911 26.8018C23.4785 26.4958 23.9978 26.4958 24.2852 26.8018ZM39.6408 26.8111C39.8356 27.0058 39.8727 27.1171 39.8727 27.6364C39.8727 28.2205 39.8634 28.2391 39.4925 28.5265L39.1216 28.8325L38.7321 28.5451C38.3798 28.2947 38.3427 28.2298 38.3148 27.8218C38.2963 27.5807 38.3056 27.284 38.3334 27.1635C38.4818 26.5885 39.2236 26.3845 39.6408 26.8111ZM5.65635 29.0551C6.3889 29.2591 6.83399 29.5094 7.39962 30.038C8.32689 30.9189 8.73489 31.8925 8.73489 33.2556C8.74417 34.4333 8.6978 34.526 7.90962 34.6094C5.0629 34.9062 2.79109 32.7178 3.00436 29.8804C3.03218 29.4724 3.09709 29.1015 3.14345 29.0551C3.39381 28.8047 4.74763 28.8047 5.65635 29.0551ZM13.3712 28.9531C13.5752 28.9994 13.6309 29.0644 13.6772 29.3425C13.7051 29.528 13.7514 29.8062 13.77 29.9453C13.8534 30.4553 13.6309 31.5309 13.3063 32.2171C12.7778 33.3391 11.5538 34.322 10.4689 34.5074L10.1351 34.5724L10.2185 33.9789C10.3576 32.8754 10.1258 31.5309 9.63435 30.548L9.35617 30.0009L9.56944 29.8154C9.96816 29.4816 11.0809 28.9902 11.6373 28.9067C12.1565 28.8233 12.7963 28.8418 13.3712 28.9531ZM21.1881 29.1015C22.6254 29.5651 23.6825 30.7427 24.0163 32.2449C24.1461 32.8291 24.109 34.3127 23.9514 34.4704C23.905 34.5167 23.5063 34.5816 23.0798 34.6187C20.8636 34.7671 18.8978 33.3298 18.4434 31.2156C18.3136 30.6314 18.3692 29.222 18.5269 29.0644C18.8143 28.7769 20.2701 28.8047 21.1881 29.1015ZM28.8474 28.9994C29.0329 29.0922 29.1163 29.4816 29.1163 30.2791C29.107 31.4753 28.6805 32.5324 27.883 33.3391C27.4009 33.8213 26.3809 34.4054 25.8245 34.5167L25.5463 34.5724L25.5741 33.5153C25.6112 32.3098 25.4629 31.5124 25.0363 30.6129C24.8787 30.2884 24.7581 30.0102 24.7581 29.9824C24.7581 29.8711 25.5834 29.3611 26.0563 29.1756C26.316 29.0736 26.7518 28.9531 27.0114 28.9067C27.5307 28.814 28.6063 28.8696 28.8474 28.9994ZM36.3027 29.0087C37.8419 29.3982 39.0752 30.7427 39.409 32.3747C39.5481 33.0238 39.4647 34.2571 39.2885 34.4425C39.2143 34.5074 38.8619 34.5909 38.5003 34.6187C36.1265 34.8134 34.0865 33.2093 33.7619 30.8911C33.6785 30.2976 33.7527 29.1478 33.8825 29.018C33.901 28.9902 34.1514 28.9345 34.4203 28.8974C34.9581 28.814 35.7278 28.8604 36.3027 29.0087ZM44.203 28.9994C44.3699 29.0644 44.407 29.1756 44.4719 29.7042C44.6203 31.1044 44.101 32.5694 43.1367 33.4504C42.6081 33.9325 41.755 34.4054 41.1987 34.5167L40.8927 34.5724L40.9483 33.71C41.0225 32.6344 40.837 31.5402 40.429 30.6778C40.2807 30.3533 40.1508 30.0473 40.1508 30.0009C40.1508 29.8525 40.8927 29.3704 41.4212 29.1756C42.3485 28.8325 43.5539 28.7491 44.203 28.9994ZM9.02235 36.1302C9.16144 36.1302 9.17998 36.26 9.17998 37.5211V38.912H8.3918H7.60362V37.5303V36.1394L7.90962 36.1023C8.06726 36.0745 8.35471 36.0745 8.53089 36.0931C8.70708 36.1116 8.92962 36.1302 9.02235 36.1302ZM24.1461 36.0931L24.5727 36.158V37.5303V38.912H23.7381H22.9036V37.5303V36.1394L23.2096 36.1023C23.3672 36.0838 23.5527 36.056 23.6083 36.056C23.664 36.0467 23.905 36.0653 24.1461 36.0931ZM39.715 36.1302C39.8541 36.1302 39.8727 36.26 39.8727 37.5211V38.912H39.0845H38.2963V37.5303V36.1394L38.6023 36.1023C38.7599 36.0745 39.0474 36.0745 39.2236 36.0931C39.3998 36.1116 39.6223 36.1302 39.715 36.1302Z" fill="white"/>
</svg>
