<svg width="43" height="49" viewBox="0 0 43 49" fill="none" xmlns="http://www.w3.org/2000/svg">
<path d="M9.60518 0.211533C8.55206 0.651931 7.92018 1.21679 7.49893 2.09759L7.28831 2.53798L6.36922 2.57628C5.57458 2.61458 5.37353 2.66245 4.80867 2.94009C3.99489 3.34219 3.32472 4.01236 2.91305 4.83571C2.61626 5.44844 2.59711 5.53461 2.59711 6.53986C2.59711 7.53555 2.61626 7.63129 2.90347 8.21529C3.0758 8.55995 3.26728 8.90461 3.3343 9.00035C3.43004 9.12481 3.40131 9.22055 3.19069 9.53649C2.46307 10.6471 2.33861 12.2076 2.90347 13.4043C3.0758 13.7586 3.41089 14.266 3.65981 14.5341C4.40657 15.3383 5.73734 15.8552 6.78089 15.7595L7.24044 15.7116L7.5468 16.2765C7.70956 16.5829 8.07336 17.052 8.36058 17.3105C8.85842 17.77 8.868 17.7796 8.868 18.3157V18.8614L8.46589 18.5072C7.97763 18.0572 6.89578 17.5498 6.14902 17.4158C5.83308 17.3583 5.16291 17.3105 4.65549 17.3105C3.5545 17.3105 3.02793 17.5211 2.73114 18.0764C2.50137 18.5072 2.48222 20.3071 2.69285 21.2262C3.08538 22.8729 4.32041 24.242 5.95754 24.8451C6.47453 25.0366 6.86706 25.094 7.74785 25.1419L8.868 25.1898V25.7451V26.3099H8.05422C7.29788 26.3099 7.21172 26.3291 6.98194 26.5588C6.78089 26.7599 6.75217 26.8652 6.80004 27.1524C6.91493 27.88 6.54155 27.8417 13.2816 27.8417H19.3035L19.6099 28.1098C19.9833 28.4545 19.9833 28.3683 19.5429 31.4894C19.361 32.8106 19.2078 33.9307 19.2078 33.969C19.2078 34.0073 18.6333 34.0648 17.944 34.0839C16.7952 34.1126 16.6324 34.1413 16.2399 34.352C15.407 34.8211 14.9187 35.7593 15.024 36.6976C15.0527 36.9561 15.6463 39.0815 16.326 41.4175C17.5419 45.5343 17.5706 45.6683 17.4749 46.1278C17.36 46.664 17.0441 47.1044 16.5845 47.3533C16.3165 47.4969 15.7995 47.516 10.687 47.516H5.08632L4.73208 47.2959C4.01404 46.8459 4.09063 47.2384 2.74072 37.5975C2.0514 32.734 1.49611 28.6747 1.49611 28.5789C1.49611 28.4832 1.62057 28.2726 1.77376 28.1194C2.0514 27.8417 2.06097 27.8417 3.26728 27.8417C4.41614 27.8417 4.48316 27.8322 4.70336 27.6024C5.0193 27.296 5.0193 26.8556 4.70336 26.5397C4.45444 26.2908 4.44487 26.2908 3.04708 26.3291C1.90779 26.3578 1.5727 26.3961 1.30464 26.5397C0.557874 26.9322 0.088754 27.6024 0.00258909 28.397C-0.0357064 28.6938 0.366396 31.8245 1.2089 37.7986C2.55881 47.3916 2.53967 47.3054 3.20026 48.0522C3.36302 48.2341 3.72683 48.5117 4.00447 48.6745L4.51188 48.9521L10.5339 48.9809C17.3409 49.0096 17.1111 49.0287 17.944 48.282L18.4131 47.8607L18.6908 48.1479C18.844 48.3107 19.2269 48.5596 19.5429 48.7224L20.1173 49L28.8295 48.9809L37.5418 48.9521L38.0492 48.6745C38.614 48.3586 39.0257 47.9373 39.3033 47.3916C39.5523 46.9129 42.3957 37.1954 42.4531 36.6497C42.5393 35.7498 42.0415 34.8115 41.2277 34.352L40.7969 34.1126L37.2833 34.0839L33.7601 34.0552L34.3441 32.8872C35.9621 29.6703 37.1588 25.4866 37.446 22.0304C37.513 21.2741 37.513 21.2453 37.2737 21.006C36.9577 20.6901 36.5173 20.6805 36.211 20.9773C36.0387 21.1496 35.9716 21.3506 35.9238 21.8676C35.56 25.4674 34.4302 29.3448 32.841 32.4372C32.0751 33.9307 31.9793 34.0648 31.6921 34.0648C31.5102 34.0648 31.4623 34.0265 31.5006 33.8924C31.9027 32.5904 32.3144 29.8044 32.4006 27.7843C32.4772 26.128 32.4006 23.4473 32.2378 22.3368C32.1421 21.6857 32.1517 21.657 32.4867 20.9007C33.1569 19.4072 34.2579 17.5594 35.2823 16.2095L35.7131 15.6446L35.7802 15.9701C35.8185 16.152 35.895 16.7935 35.9525 17.3966C36.0387 18.3062 36.0865 18.5264 36.2684 18.7178C36.6322 19.1104 37.3024 18.9763 37.4747 18.4785C37.6471 17.9711 37.3024 15.1276 37.0056 14.6394C36.6227 14.0075 35.7706 13.7777 35.1196 14.1224C34.6026 14.4096 33.1378 16.3818 32.0942 18.22C31.8357 18.6891 31.6442 18.9285 31.6155 18.8423C31.5868 18.7657 31.4336 18.2391 31.2709 17.6743C30.7347 15.8361 30.0933 14.333 29.672 13.9309C29.1646 13.4522 28.2647 13.4618 27.7668 13.95C27.4509 14.2564 26.9339 15.4148 26.3978 17.0137L26.034 18.1051L25.7659 17.636C24.8947 16.1329 23.6118 14.4575 23.1043 14.1415C22.5012 13.7777 21.5821 13.9883 21.2183 14.5819C20.8641 15.1564 20.7013 16.6307 20.7013 19.321C20.6917 21.9442 20.8066 23.1027 21.2853 25.3908C21.8502 28.1194 22.8937 31.1064 24.0617 33.3276L24.4447 34.0648H22.5969C21.5725 34.0648 20.7396 34.0552 20.7396 34.036C20.7396 34.0265 20.9119 32.8297 21.113 31.3841C21.5247 28.4928 21.5247 28.1672 21.0843 27.4205C20.6534 26.6929 19.8971 26.3099 18.8535 26.3099H18.2312L18.5759 25.8504C19.4088 24.7111 19.7248 23.5622 19.6673 21.9155C19.6386 20.8911 19.5429 20.6518 18.978 20.2401C18.7578 20.0677 18.5472 20.0295 17.6472 20.0103C15.991 19.9624 14.9474 20.2688 13.7794 21.1496L13.272 21.5326V19.6561V17.7892L13.8273 17.2339C14.1432 16.9371 14.4879 16.4775 14.6123 16.2095L14.8325 15.7308L15.6559 15.7212C17.8962 15.6925 19.5237 14.0266 19.5333 11.7576C19.5333 10.8481 19.3705 10.2258 18.9301 9.57478L18.6525 9.15353L18.978 8.6174C19.5046 7.74617 19.6865 6.82708 19.5046 5.87927C19.1312 3.87833 17.5515 2.56671 15.5314 2.56671H14.8517L14.5836 2.04972C14.2294 1.37955 13.4252 0.613636 12.7263 0.288124C12.2571 0.0774988 12.0178 0.0296294 11.1657 0.0104817C10.2754 -0.01824 10.0935 0.000907775 9.60518 0.211533ZM11.9604 1.65719C12.7167 1.97313 13.2911 2.67202 13.4635 3.49537C13.6071 4.16554 13.8081 4.3283 14.3921 4.25171C15.8474 4.0698 16.0005 4.0698 16.5175 4.29C17.3504 4.65381 18.0589 5.67822 18.0589 6.53986C18.0589 7.08558 17.743 7.76532 17.2356 8.32061C16.5654 9.04822 16.5462 9.30671 17.1398 9.87157C18.1164 10.829 18.2887 11.93 17.6377 13.031C17.427 13.3852 17.1877 13.615 16.8239 13.8352C16.1346 14.2468 15.6367 14.3139 14.8038 14.0937C13.8943 13.8639 13.722 13.9596 13.4635 14.8308C13.0709 16.1329 12.2571 16.7839 11.0221 16.7839C9.74879 16.7743 8.94459 16.0659 8.58078 14.6489C8.45632 14.1702 8.13081 13.9117 7.74785 13.9883C7.59467 14.0266 7.24044 14.0937 6.95322 14.1607C5.51714 14.4575 4.08106 13.2607 4.08106 11.7576C4.08106 11.1066 4.397 10.4077 4.89484 9.93859C5.54586 9.32586 5.52671 8.9812 4.80867 8.25359C3.20026 6.64518 4.50231 3.8879 6.7426 4.13682C7.04896 4.16554 7.47978 4.22299 7.71913 4.25171C8.28399 4.31873 8.44675 4.18469 8.62865 3.49537C8.85842 2.59543 9.42328 1.93483 10.2083 1.61889C10.5721 1.47528 11.5774 1.49443 11.9604 1.65719ZM29.5188 17.2626C30.4667 20.0582 30.8975 22.8346 30.8975 26.1663C30.8975 28.78 30.6198 31.1543 30.0454 33.3467L29.8731 34.0169H28.7338H27.5945L27.5179 33.7297C27.2881 32.935 26.8573 30.6277 26.7233 29.4693C26.5414 27.9375 26.5126 24.7015 26.6754 23.2463C26.953 20.5847 27.6041 17.9232 28.4657 15.884L28.7242 15.2712L28.954 15.7882C29.088 16.0754 29.3369 16.736 29.5188 17.2626ZM23.2384 16.6403C23.8798 17.5115 24.7128 18.8614 25.1723 19.7614L25.5074 20.4316L25.3255 21.6666C24.8468 24.8738 24.9521 29.1438 25.584 32.2361C25.6606 32.6191 25.7084 32.9542 25.6893 32.9829C25.6223 33.0404 24.7511 31.2117 24.3011 30.0916C23.4394 27.9088 22.8076 25.5727 22.4533 23.1984C22.2044 21.5517 22.1182 18.7466 22.2618 17.2626C22.415 15.7978 22.4533 15.6063 22.5969 15.7882C22.6544 15.8648 22.9416 16.2478 23.2384 16.6403ZM11.7402 22.2889V26.3099H11.07H10.3998V22.3368V18.3732L11.0508 18.3349C11.4051 18.3157 11.7019 18.2966 11.721 18.287C11.7306 18.2774 11.7402 20.0773 11.7402 22.2889ZM6.5224 19.1295C6.95322 19.2923 7.25959 19.5125 7.72871 19.9816C8.53291 20.7858 8.77226 21.3698 8.83927 22.691L8.89672 23.6292H8.08294C6.62771 23.6292 5.51714 23.1027 4.77995 22.0783C4.27254 21.3794 4.08106 20.7092 4.08106 19.6944V18.8136L5.0193 18.8614C5.66075 18.8997 6.12987 18.9859 6.5224 19.1295ZM18.1355 22.5091C18.0972 23.3612 18.0493 23.5909 17.7908 24.1366C17.4175 24.9409 16.7856 25.5727 15.9814 25.9461C15.4357 26.2046 15.2059 26.2525 14.3443 26.2908L13.339 26.3386L13.3869 25.3334C13.4252 24.4717 13.473 24.242 13.7315 23.6962C14.0762 22.9495 14.6889 22.2985 15.3687 21.9538C16.0197 21.6283 16.4218 21.5421 17.3792 21.5326L18.1834 21.523L18.1355 22.5091ZM40.6341 35.8263C40.9213 36.0848 40.9692 36.4678 40.7969 37.071L40.6437 37.6071H28.7338H16.8239L16.6707 37.071C16.4505 36.3146 16.5941 35.8551 17.1015 35.6636C17.1781 35.6349 22.4629 35.6157 28.8391 35.6253C39.9927 35.6444 40.4522 35.654 40.6341 35.8263ZM40.1171 39.3783C40.0884 39.5123 39.9831 39.8665 39.8873 40.1729L39.715 40.7186L31.6921 40.7665C27.269 40.7952 23.5926 40.8526 23.5065 40.8909C23.3245 40.9771 23.1331 41.36 23.1331 41.6377C23.1331 41.743 23.2384 41.9345 23.3724 42.0589L23.6022 42.2983H31.4145C35.7036 42.2983 39.2172 42.327 39.2172 42.3653C39.2172 42.5376 38.03 46.4916 37.9056 46.731C37.8385 46.8746 37.5992 47.1044 37.379 47.2576L36.9769 47.516H28.7338H20.4907L20.0886 47.2576C19.8684 47.1044 19.629 46.8746 19.562 46.731C19.4376 46.4916 18.2504 42.5376 18.2504 42.3653C18.2504 42.327 18.844 42.2983 19.562 42.2983C20.7779 42.2983 20.8832 42.2791 21.0938 42.0877C21.3715 41.8292 21.3811 41.3505 21.1321 41.0441C20.9598 40.8239 20.8832 40.8143 19.3514 40.7665L17.7526 40.7186L17.5802 40.1729C17.4845 39.8665 17.3792 39.5123 17.3504 39.3783L17.293 39.1389H28.7338H40.1746L40.1171 39.3783Z" fill="white"/>
<path d="M10.3901 5.06545C8.66676 5.31437 7.20196 6.77917 6.96261 8.51204C6.67539 10.5991 7.85298 12.4948 9.81562 13.0979C11.29 13.5575 12.8984 13.1649 13.9803 12.0831C14.8419 11.2214 15.2536 10.1013 15.1578 8.84713C14.9951 6.40579 12.841 4.71121 10.3901 5.06545ZM12.1899 6.83661C13.1569 7.29616 13.7218 8.30142 13.626 9.36412C13.4441 11.4608 10.9549 12.4852 9.36565 11.1257C8.18807 10.1205 8.16892 8.31099 9.30821 7.25786C10.1699 6.47281 11.1272 6.3292 12.1899 6.83661Z" fill="white"/>
</svg>
