<svg width="49" height="49" viewBox="0 0 49 49" fill="none" xmlns="http://www.w3.org/2000/svg">
<path d="M27.7556 0.102188C27.6216 0.159615 26.1286 1.58568 24.4345 3.27973L21.3431 6.352L20.3095 5.32791C19.4481 4.4761 19.2184 4.30382 18.9791 4.30382C18.5197 4.30382 18.2326 4.59095 18.2326 5.05992C18.2326 5.43319 18.29 5.50976 19.2375 6.45728L20.2329 7.46222L17.1606 10.5441C15.4666 12.2477 14.0405 13.7599 13.9831 13.9035C13.83 14.3054 13.8587 14.9371 14.0501 15.2817C14.1362 15.4444 15.3134 16.7747 16.6534 18.2295C17.9933 19.6939 19.1035 20.9094 19.1227 20.9476C19.1322 20.9859 17.6583 21.1103 15.8303 21.2252C12.289 21.4549 12.088 21.4932 11.8296 21.9909C11.6765 22.2876 11.4851 23.6945 11.4851 24.5272C11.4851 25.0344 11.5138 25.1206 11.8009 25.3981C12.0785 25.6757 12.2699 25.7427 13.9448 26.1255C15.7154 26.5275 15.7824 26.5371 16.0313 26.3744C16.3854 26.1351 16.4907 25.8097 16.328 25.4077C16.1748 25.044 16.1557 25.0344 14.2606 24.6037L13.0643 24.3357L13.093 23.6754C13.1121 23.3117 13.1504 22.9958 13.1696 22.9671C13.2174 22.9193 19.3332 22.4981 20.118 22.4981L20.5583 22.4886L22.6639 24.7664L24.7599 27.0443L21.9748 26.3935C20.4435 26.0394 19.0557 25.7427 18.893 25.7427C18.5197 25.7427 18.1847 26.0872 18.1847 26.4796C18.1847 27.1017 18.1943 27.1017 22.5586 28.1163L26.588 29.0542L27.8992 30.4803C29.8899 32.6529 30.5408 33.3037 30.9619 33.5143C31.4979 33.7918 32.388 33.8492 33.0292 33.6387C33.5173 33.4855 33.8906 33.1218 40.4084 26.6232C48.113 18.9282 47.7206 19.3972 47.644 18.0764C47.5866 17.1097 47.3569 16.7269 46.1605 15.6358L45.213 14.7744L45.9978 13.9417C47.1463 12.7358 47.845 11.2619 48.0173 9.64439C48.0651 9.15627 48.046 9.08928 47.8258 8.85958C47.5291 8.56288 47.108 8.53417 46.8113 8.77344C46.6582 8.89786 46.5529 9.19456 46.4189 9.85495C46.1605 11.1183 45.7202 11.9606 44.8206 12.9176C44.4186 13.3388 44.0645 13.6737 44.0262 13.6642C43.9879 13.645 43.7295 13.4345 43.4519 13.1761L42.9542 12.7262L43.5859 12.0563C43.9305 11.683 44.342 11.1375 44.4952 10.8312C45.6532 8.5246 44.6004 5.78731 42.1981 4.86851C41.4708 4.58138 40.3988 4.52395 39.6236 4.72494C38.7718 4.94507 38.2741 5.26091 37.3553 6.15101L36.5609 6.91668L36.044 6.44771C35.7569 6.18929 35.5272 5.95002 35.5176 5.92131C35.5081 5.89259 35.9292 5.45233 36.446 4.95464C37.8434 3.60514 39.0589 3.0596 40.7146 3.0596C41.6239 3.0596 42.7437 3.3563 43.5381 3.79656C44.3229 4.22725 45.3278 5.22263 45.749 5.97873C46.1988 6.79226 46.3041 6.88797 46.706 6.88797C47.1272 6.88797 47.4717 6.57213 47.4717 6.17972C47.4717 5.62461 46.5625 4.23683 45.6628 3.43287C43.8635 1.79624 41.3368 1.15499 38.9919 1.71967C37.4988 2.0738 36.5992 2.6002 35.1444 3.96884L34.2543 4.81108L33.7566 4.33253C32.053 2.68634 29.488 0.322323 29.2391 0.169186C28.9233 -0.0222321 28.1576 -0.0605164 27.7556 0.102188ZM26.5401 5.56718L23.5444 8.56288L23.018 8.03648L22.4916 7.51008L25.4778 4.52395L28.4734 1.52826L28.9998 2.05466L29.5263 2.58106L26.5401 5.56718ZM39.0015 11.2332C42.6863 14.5734 45.7968 17.4543 45.9212 17.617C46.0552 17.818 46.1318 18.0572 46.1318 18.3156C46.1318 18.708 46.1126 18.7272 39.4609 25.379C35.7952 29.0446 32.6655 32.0978 32.5219 32.1648C32.053 32.3562 31.6701 32.203 31.048 31.5522C30.0814 30.5664 17.6966 16.9374 17.6487 16.813C17.6296 16.746 18.9408 15.3678 20.5774 13.7312L23.5444 10.7642L24.1091 11.3384L24.6834 11.9127L24.4824 12.487C23.8411 14.3724 25.1428 16.3057 27.1431 16.4397C28.3682 16.5163 29.4305 15.9516 30.0048 14.918C30.2728 14.4394 30.2919 14.3246 30.2919 13.444C30.2919 12.5635 30.2728 12.4487 30.0048 11.9701C29.6602 11.348 28.9903 10.7929 28.3203 10.5728C27.7078 10.3718 26.6167 10.4101 26.1381 10.6589L25.8127 10.8312L25.2289 10.2474L24.6451 9.66353L27.6504 6.65827L30.6652 3.64343L31.4787 4.38996C31.9286 4.80151 35.3167 7.88334 39.0015 11.2332ZM41.6622 6.31371C42.6384 6.67741 43.3275 7.61536 43.4232 8.69687C43.4998 9.51997 43.2031 10.1995 42.4087 11.013L41.777 11.6639L39.748 9.81667L37.7285 7.95991L38.4081 7.28995C39.5949 6.14144 40.4849 5.87345 41.6622 6.31371ZM19.4576 12.6497L16.462 15.6454L15.9356 15.119L15.4092 14.5926L18.3953 11.6064L21.391 8.61073L21.9174 9.13713L22.4438 9.66353L19.4576 12.6497ZM28.014 12.1137C28.9711 12.5731 29.086 14.0374 28.2055 14.6596C27.7652 14.9754 27.0282 15.0041 26.6167 14.717C26.1381 14.3916 25.918 14.047 25.8606 13.5302L25.8127 13.0708L26.0807 13.2813C26.4348 13.5589 26.8464 13.5493 27.1335 13.2526C27.4302 12.9655 27.4398 12.554 27.1718 12.2094L26.9804 11.9606H27.3249C27.5164 11.9606 27.8322 12.0275 28.014 12.1137Z" fill="white"/>
<path d="M8.42235 28.1354C8.03952 28.5182 8.27879 29.3605 8.78605 29.3892C9.14017 29.4179 9.34116 29.3605 9.52301 29.1786C9.76228 28.9489 9.76228 28.4034 9.52301 28.1354C9.28374 27.877 8.68077 27.877 8.42235 28.1354Z" fill="white"/>
<path d="M11.5808 28.1163C11.3128 28.3269 11.2937 28.9203 11.5425 29.1978C11.7818 29.4658 12.4805 29.4467 12.6719 29.1691C12.8825 28.8724 12.8633 28.2982 12.6528 28.1067C12.4231 27.8962 11.8488 27.8962 11.5808 28.1163Z" fill="white"/>
<path d="M8.49886 30.911C8.25959 31.1598 8.2213 31.2555 8.26916 31.5139C8.44143 32.4232 9.76222 32.3466 9.76222 31.4278C9.76222 31.0162 9.4081 30.6238 9.0444 30.6238C8.89127 30.6238 8.67114 30.7387 8.49886 30.911Z" fill="white"/>
<path d="M11.8106 30.7291C11.3607 30.9588 11.2746 31.5618 11.6287 31.9159C12.1073 32.4041 12.9208 32.0882 12.9208 31.4182C12.9208 30.8536 12.3083 30.4803 11.8106 30.7291Z" fill="white"/>
<path d="M5.21615 34.3661C4.38348 34.4905 4.05807 34.6245 3.78051 34.9403C3.11055 35.7443 3.84751 38.0413 5.16829 39.276C6.21152 40.233 7.3696 40.6733 8.87224 40.6733H9.76233V41.2476C9.76233 41.7165 9.73362 41.841 9.59963 41.8792C9.09237 42.0228 8.1927 42.5588 7.90558 42.8842C7.59931 43.2096 7.53231 43.2479 7.32175 43.1617C6.89106 42.999 5.88611 43.0469 5.31186 43.267C3.88579 43.7934 3.11055 45.5258 3.60823 47.0188L3.79965 47.5644H2.09603H0.392407L0.200989 47.8132C0.0861382 47.9568 0 48.1673 0 48.2822C0 48.397 0.0861382 48.6076 0.200989 48.7512L0.392407 49H10.5759H20.7593L20.9507 48.7512C21.2091 48.4257 21.2091 48.1386 20.9507 47.8132L20.7593 47.5644H19.027C17.4191 47.5644 17.3042 47.5548 17.3712 47.4017C17.9455 46.0713 17.687 44.7505 16.6917 43.8413C16.4045 43.5733 15.9834 43.3053 15.7346 43.2192C15.2273 43.0469 14.2128 43.0182 13.8395 43.1617C13.6194 43.2383 13.5428 43.2096 13.1696 42.8268C12.7389 42.3961 12.2795 42.1281 11.6574 41.9271L11.2937 41.8027V41.2188V40.6254L12.1551 40.6542C13.227 40.6924 13.8108 40.5776 14.7296 40.1373C16.3567 39.3525 17.6009 37.4383 17.6105 35.7251C17.6105 35.3423 17.5626 35.17 17.3712 34.9499C17.0458 34.5671 16.1748 34.3278 15.122 34.3374C14.1362 34.3374 13.5524 34.4714 12.7485 34.8446C12.1359 35.1413 11.0353 36.0888 10.7481 36.5578L10.595 36.8258L10.2409 36.376C9.03494 34.8542 7.11119 34.0885 5.21615 34.3661ZM7.22604 36.0506C8.43198 36.4717 9.41778 37.5532 9.71448 38.7783C9.7719 38.9984 9.74319 39.0462 9.52306 39.1037C9.38907 39.1324 8.92966 39.142 8.51811 39.1228C7.53231 39.0654 6.70921 38.673 6.06796 37.9647C5.58941 37.4383 5.16829 36.6439 5.13958 36.2037C5.12044 35.974 5.15872 35.9261 5.45542 35.8783C5.88611 35.7921 6.73792 35.8783 7.22604 36.0506ZM15.9547 35.9357C16.1078 35.9836 15.9451 36.5482 15.5719 37.2565C14.9976 38.3476 13.8874 39.0462 12.6145 39.1228C12.2125 39.142 11.7627 39.142 11.6287 39.1037C11.399 39.0462 11.3798 39.008 11.4468 38.7304C11.7244 37.4192 13.1122 36.1271 14.4617 35.8974C14.9211 35.8208 15.6389 35.84 15.9547 35.9357ZM11.1597 43.401C11.6957 43.5541 12.1742 43.9753 12.4518 44.5208C12.7485 45.1046 13.2749 45.2482 13.7917 44.8749C14.1075 44.6548 14.6914 44.54 15.0646 44.6357C15.1986 44.6644 15.457 44.8271 15.6484 44.9898C16.5577 45.7937 16.1174 47.2007 14.8732 47.4687C14.5478 47.5357 12.9782 47.5644 10.2313 47.5452C6.14453 47.5165 6.06796 47.5165 5.74255 47.3059C5.35014 47.0667 4.97688 46.4637 4.97688 46.0713C4.97688 45.6215 5.32143 45.0376 5.73298 44.8079C6.22109 44.5304 6.74749 44.54 7.22604 44.8367C7.63759 45.0855 8.09699 45.1429 8.3267 44.9515C8.41283 44.8845 8.59468 44.6357 8.73825 44.3868C9.02537 43.8987 9.40821 43.5829 9.94418 43.3914C10.394 43.2287 10.5854 43.2287 11.1597 43.401Z" fill="white"/>
</svg>
