<svg width="39" height="49" viewBox="0 0 39 49" fill="none" xmlns="http://www.w3.org/2000/svg">
<path d="M18.4516 0.698631C16.6715 2.57441 14.6809 5.78047 13.4941 8.66113C13.2932 9.13008 13.1209 9.55117 13.0922 9.58945C13.073 9.6373 12.5467 9.15879 11.9342 8.53672C10.202 6.78535 8.84297 5.78047 6.87148 4.81387C5.75176 4.25879 5.18711 4.11523 4.85215 4.29707C4.60332 4.43105 4.25879 5.47422 4.00996 6.84277C3.87598 7.58926 3.8377 8.27832 3.8377 9.95312C3.8377 12.0203 3.87598 12.4318 4.23008 14.3746C4.27793 14.6234 4.22051 14.5947 2.71797 13.7717C0.957031 12.8146 0.631641 12.7381 0.229688 13.1688L0 13.4176V15.7719C0 19.2363 0.382812 21.9447 1.26328 24.6436C2.00977 26.9309 3.55059 29.0459 5.55078 30.5006L5.83789 30.7111L5.43594 31.0557C5.21582 31.2375 4.91914 31.6299 4.77559 31.917C4.5459 32.3955 4.52676 32.5295 4.56504 33.1994C4.60332 33.7832 4.66074 34.0416 4.86172 34.3861C5.19668 34.9604 5.72305 35.3814 6.33555 35.5729C6.61309 35.659 6.86191 35.8025 6.88105 35.8791C6.90977 35.9652 7.27344 37.908 7.69453 40.2049C8.48887 44.5115 8.55586 44.7891 8.99609 45.6504C9.81914 47.2678 11.1781 48.3684 12.9199 48.8182C13.5324 48.9809 14.0875 49 19.4756 49C24.8637 49 25.4188 48.9809 26.0312 48.8182C27.773 48.3684 29.132 47.2678 29.9551 45.6504C30.3953 44.7891 30.4623 44.5115 31.2566 40.2049C31.6777 37.908 32.0414 35.9557 32.0701 35.86C32.1084 35.726 32.2328 35.6973 32.7687 35.6973C33.9172 35.6973 34.7211 35.2666 35.2475 34.3766C35.4771 33.9746 35.5059 33.8311 35.5059 33.0654C35.5059 32.2998 35.4771 32.1562 35.2475 31.7543C34.9221 31.2088 34.3861 30.7494 33.898 30.6059C33.6971 30.5484 33.5535 30.4719 33.5631 30.4336C33.5822 30.3953 33.9076 30.0986 34.2904 29.7732C35.8121 28.4621 37.0563 26.5959 37.6879 24.6436C38.5684 21.9447 38.9512 19.2363 38.9512 15.7719V13.4176L38.7215 13.1688C38.3195 12.7381 37.9941 12.8146 36.2332 13.7717C34.7307 14.5947 34.6732 14.6234 34.7211 14.3746C35.0752 12.4318 35.1135 12.0203 35.1135 9.95312C35.1135 8.27832 35.0752 7.58926 34.9412 6.84277C34.6924 5.47422 34.3479 4.43105 34.099 4.29707C33.7641 4.11523 33.1994 4.25879 32.0797 4.81387C30.1082 5.78047 28.7396 6.78535 27.017 8.53672C26.4045 9.15879 25.8781 9.6373 25.859 9.59902C25.8303 9.55117 25.658 9.13008 25.457 8.66113C24.2703 5.76133 22.184 2.44043 20.3752 0.555077C19.9062 0.0669899 19.7914 0 19.4756 0C19.1502 0 19.0449 0.0669899 18.4516 0.698631ZM18.71 15.2359V27.5912L18.1836 26.5768C17.552 25.3422 16.7863 24.1363 15.9824 23.1123C15.3986 22.3754 13.743 20.7006 12.8912 20.002L12.4893 19.667L12.6328 18.3271C13.1592 13.5037 14.5182 9.35019 16.8246 5.50293C17.351 4.62246 18.5855 2.87109 18.6717 2.87109C18.6908 2.87109 18.71 8.43145 18.71 15.2359ZM20.9398 3.70371C23.8205 7.6084 25.7059 12.7381 26.3184 18.3271L26.4619 19.667L26.06 20.002C25.2082 20.7006 23.5525 22.3754 22.9688 23.1123C22.1648 24.1363 21.3992 25.3422 20.7676 26.5768L20.2412 27.5912V15.2359C20.2412 8.43145 20.2604 2.87109 20.2795 2.87109C20.2986 2.87109 20.5953 3.24434 20.9398 3.70371ZM7.64668 7.00547C8.48887 7.5414 9.63731 8.44101 10.4221 9.1875C11.3791 10.0967 12.3936 11.3121 12.3936 11.5418C12.3936 11.6471 12.3266 11.9342 12.2404 12.2021C12.1543 12.4605 11.9533 13.3027 11.7811 14.0684L11.4652 15.4561L9.27363 11.0728C8.06777 8.6707 7.0916 6.69922 7.12031 6.69922C7.13945 6.69922 7.37871 6.8332 7.64668 7.00547ZM29.6775 11.0728L27.4859 15.4561L27.1701 14.0684C26.9979 13.3027 26.7969 12.4605 26.7107 12.2021C26.6246 11.9342 26.5576 11.6471 26.5576 11.5418C26.5576 11.159 28.577 9.01523 29.8881 8.01035C30.5102 7.52227 31.7352 6.69922 31.8213 6.69922C31.85 6.69922 30.8834 8.6707 29.6775 11.0728ZM9.11094 14.2502C10.4699 17.0064 11.0537 18.2889 11.0346 18.4707C11.0059 18.7195 10.958 18.7004 8.70898 17.3031C7.4457 16.5184 6.36426 15.8293 6.29727 15.7623C6.125 15.59 5.62734 13.5707 5.44551 12.2883C5.33066 11.4078 5.30195 10.7666 5.3498 9.47461C5.43594 6.84277 5.37852 6.88105 6.34512 8.72812C6.78535 9.57988 8.03906 12.0682 9.11094 14.2502ZM33.6109 9.47461C33.6492 10.757 33.6205 11.4174 33.5057 12.2883C33.3238 13.5707 32.8262 15.59 32.6539 15.7623C32.5869 15.8293 31.5055 16.5184 30.2422 17.3031L27.9453 18.7291L27.9166 18.4516C27.8879 18.241 28.577 16.7863 30.6346 12.652C33.8119 6.30684 33.5152 6.61309 33.6109 9.47461ZM5.74219 17.3127C8.53672 18.9779 11.0537 20.5857 11.9629 21.2939C12.8529 21.9926 14.3459 23.5143 15.0063 24.3947C15.9824 25.7059 16.882 27.3137 17.6381 29.0938C18.2123 30.4719 18.2123 30.4336 17.8008 30.4336C17.1691 30.4336 14.7287 29.0363 13.0252 27.6773C9.45547 24.8541 5.81875 20.5953 3.01465 15.9441L2.79453 15.5709L3.26348 15.8389C3.52188 15.992 4.63203 16.6523 5.74219 17.3127ZM36.0227 15.8102C35.9557 15.925 35.7643 16.2504 35.5824 16.5279C35.0465 17.3605 35.2283 18.0879 35.9652 18.0879C36.3576 18.0879 36.5777 17.8965 37.0371 17.1309C37.2285 16.8055 37.4104 16.5662 37.4391 16.5854C37.4582 16.6141 37.4295 17.2553 37.3721 18.0113C37.1328 20.9781 36.4916 23.8588 35.726 25.3996C34.7115 27.4285 33.0367 29.1033 30.9791 30.1369L30.3857 30.4336L27.6008 30.4145L24.8254 30.3857L25.8111 29.7062C27.5146 28.5291 29.2086 27.0457 30.8643 25.2561C32.3668 23.6291 33.6301 22.0787 33.7354 21.7342C33.8311 21.3896 33.6779 21.0643 33.343 20.8729C32.9314 20.6432 32.6443 20.7963 31.8979 21.7055C29.5818 24.4809 27.6582 26.3854 25.6484 27.8975C23.7631 29.3139 21.7725 30.4336 21.1504 30.4336C20.7389 30.4336 20.7389 30.4719 21.3131 29.0938C22.0691 27.3137 22.9688 25.7059 23.9449 24.3947C24.6053 23.5143 26.0982 21.9926 26.9883 21.2939C27.9262 20.5666 30.4719 18.9396 33.3525 17.2266C34.5393 16.5279 35.6398 15.8771 35.793 15.7814C36.1566 15.5613 36.1566 15.5613 36.0227 15.8102ZM2.29688 17.7242C5.46465 22.7678 9.73301 27.4477 13.341 29.8498L14.1449 30.3857L11.36 30.4145L8.56543 30.4336L7.97207 30.1369C5.91445 29.1033 4.23965 27.4285 3.2252 25.3996C2.45957 23.8588 1.80879 20.9686 1.5791 18.0018C1.46426 16.5279 1.47383 16.5566 1.52168 16.5566C1.54082 16.5566 1.89492 17.083 2.29688 17.7242ZM33.4387 32.0988C34.2139 32.5104 34.2139 33.6205 33.4387 34.032C33.209 34.1469 31.8883 34.166 24.5479 34.166C18.174 34.166 15.8676 34.1947 15.7145 34.2809C15.2359 34.5297 15.1307 35.0178 15.4656 35.4484L15.657 35.6973H23.074C29.0555 35.6973 30.4814 35.7164 30.4814 35.8217C30.4814 36.0705 29.0363 43.7076 28.9023 44.167C28.7492 44.7125 28.2037 45.66 27.8209 46.0619C27.3711 46.5309 26.4619 47.0764 25.7537 47.3061C25.0838 47.5166 25.0072 47.5166 19.4756 47.5166C13.9439 47.5166 13.8674 47.5166 13.1975 47.3061C12.4893 47.0764 11.5801 46.5309 11.1303 46.0619C10.7475 45.66 10.202 44.7125 10.0488 44.167C9.91484 43.7076 8.46973 36.0705 8.46973 35.8217C8.46973 35.726 8.78555 35.6973 9.82871 35.6973C11.092 35.6973 11.1973 35.6781 11.4078 35.4867C11.6854 35.2283 11.6949 34.7498 11.4461 34.4436C11.2643 34.2139 11.2355 34.2139 9.02481 34.166C7.54141 34.1373 6.72793 34.0799 6.59395 34.0033C5.88574 33.6014 5.91445 32.5008 6.6418 32.1084C7.02461 31.8979 33.0367 31.8979 33.4387 32.0988Z" fill="#3E8847"/>
</svg>
