<svg width="49" height="49" viewBox="0 0 49 49" fill="none" xmlns="http://www.w3.org/2000/svg">
<path d="M10.7655 0.172574C9.09085 0.660609 7.73201 1.77065 6.97603 3.25389L6.70809 3.79934L6.22005 3.61753C5.60762 3.38786 5.25355 3.38786 4.9569 3.6271C4.59327 3.91418 4.4593 4.30652 4.59327 4.718C4.72724 5.13905 4.86121 5.24431 5.63633 5.55053L6.2679 5.8089L6.29661 7.60793L6.31575 9.41653L5.48322 9.64619C4.46887 9.93327 4.2105 10.1534 4.2105 10.7754C4.2105 11.1199 4.26791 11.2538 4.49758 11.4931C4.77509 11.761 4.8325 11.7802 5.29183 11.7323C5.56934 11.7036 5.90427 11.6462 6.05738 11.6079L6.31575 11.5505V13.2251V14.8997L5.74159 14.7562C5.09088 14.584 4.76552 14.6414 4.44016 14.9667C4.26791 15.1486 4.2105 15.3017 4.2105 15.6366C4.2105 16.2873 4.51672 16.5552 5.53106 16.7849L6.31575 16.9572V18.5935V20.2394L5.45451 20.5552C4.44016 20.9284 4.2105 21.1581 4.2105 21.7801C4.2105 22.0959 4.26791 22.2586 4.44016 22.4308C4.79423 22.7849 5.12915 22.8231 5.76073 22.5935L6.31575 22.3925V24.5839V26.7657L5.7703 26.5743C5.31097 26.4212 5.15786 26.4021 4.87078 26.4882C4.44016 26.6222 4.2105 26.9475 4.2105 27.4356C4.2105 28.0097 4.46887 28.2585 5.45451 28.6126L6.31575 28.9188V30.5264V32.1437H3.40668H0.507174L0.248802 32.3925L0 32.6508V35.78C0 38.1053 0.0382773 39.1197 0.14354 39.7225C0.937793 44.3158 4.66026 48.0383 9.27267 48.8421C10.4688 49.0526 38.5261 49.0526 39.7222 48.8421C44.3346 48.0383 48.0571 44.3158 48.8513 39.7225C48.9566 39.1197 48.9949 38.1053 48.9949 35.78V32.6508L48.7461 32.3925L48.4973 32.1437L44.9662 32.1245L41.4351 32.0958L42.4208 30.9953C42.9567 30.3829 43.5308 29.7322 43.6935 29.5312L43.9901 29.1772L44.6409 29.426C45.6265 29.7896 46.2198 29.5791 46.3729 28.8135C46.4877 28.2202 46.1815 27.7992 45.4351 27.56C45.2341 27.493 45.0715 27.4164 45.0715 27.3973C45.0715 27.3781 45.1767 27.0911 45.3107 26.7561C45.5212 26.249 45.7318 25.5121 45.971 24.4595C46.0284 24.2011 46.0475 24.2011 46.7557 24.2011C47.4255 24.2011 47.5021 24.182 47.7604 23.9236C47.9805 23.6939 48.038 23.56 48.038 23.2251C48.038 22.5265 47.5978 22.1916 46.66 22.1916H46.1528L45.9997 21.1007C45.9231 20.4978 45.703 19.5696 45.5308 19.0433C45.349 18.5074 45.2533 18.0768 45.3011 18.0768C45.3585 18.0768 45.6265 17.9715 45.904 17.8471C46.727 17.4548 46.9279 16.7083 46.3442 16.1246C46.0284 15.7993 45.5499 15.7993 44.7844 16.1055L44.2198 16.3351L43.8179 15.7993C43.5978 15.493 43.1098 14.9572 42.7461 14.6031L42.0763 13.9524L42.4303 13.5888C42.8514 13.1581 42.9567 12.6892 42.7366 12.2586C42.5452 11.8854 42.3155 11.761 41.8179 11.761C41.4638 11.761 41.3586 11.8184 40.861 12.2969L40.306 12.8232L39.7414 12.5457C38.4112 11.8663 36.7844 11.5218 34.9758 11.5313C33.2342 11.5409 31.8945 11.8184 30.44 12.4883L29.7319 12.8136L29.1768 12.2873C28.6792 11.8184 28.5835 11.761 28.2103 11.761C27.6936 11.761 27.4161 11.9428 27.2725 12.3926C27.1194 12.8423 27.2056 13.1199 27.6266 13.5888L27.9711 13.9715L27.1577 14.8041C26.7175 15.2634 26.2295 15.7897 26.086 15.9907L25.8276 16.3351L25.263 16.1055C24.4974 15.7993 24.0955 15.8088 23.7319 16.1342C23.4927 16.3543 23.4353 16.4787 23.4257 16.804C23.4161 17.3782 23.6266 17.6366 24.2869 17.8949L24.8419 18.115L24.5836 18.8806C24.2869 19.7418 24.019 20.9667 24.019 21.4452C24.019 22.1246 23.9711 22.1629 23.2343 22.2107C22.6219 22.2394 22.5357 22.2777 22.2869 22.5552C21.8946 22.9858 21.9042 23.5313 22.2869 23.9236C22.5549 24.182 22.6123 24.2011 23.33 24.2011H24.086L24.1529 24.6987C24.1912 24.9667 24.373 25.6174 24.5549 26.1533C24.7367 26.6891 24.9089 27.1867 24.9376 27.2729C24.9759 27.3973 24.8994 27.4643 24.6506 27.5504C23.5309 27.914 23.3108 29.0815 24.2678 29.5312C24.5931 29.6939 24.6314 29.6843 25.2917 29.4642C25.6745 29.3303 26.0094 29.225 26.0381 29.225C26.086 29.225 27.6075 30.9283 28.4974 31.9714C28.6314 32.1341 28.3826 32.1437 23.4161 32.1437H18.1817V30.5264V28.9188L19.0429 28.6126C20.0286 28.2585 20.2869 28.0097 20.2869 27.4356C20.2869 26.9475 20.0573 26.6222 19.6267 26.4882C19.3396 26.4021 19.1865 26.4212 18.7271 26.5743L18.1817 26.7657V24.5935V22.4117L18.7367 22.603C19.3683 22.8231 19.7032 22.7849 20.0573 22.4308C20.2295 22.2586 20.2869 22.0959 20.2869 21.7801C20.2869 21.1581 20.0573 20.9284 19.0429 20.5552L18.1817 20.2299V18.5935V16.9572L18.976 16.7849C19.9807 16.5552 20.2869 16.2873 20.2869 15.6366C20.2869 15.3017 20.2295 15.1486 20.0573 14.9667C19.7319 14.6414 19.4066 14.584 18.7559 14.7562L18.1817 14.8997V13.2251V11.5505L18.4496 11.6079C18.5932 11.6462 18.9281 11.7036 19.2056 11.7323C19.6649 11.7802 19.7224 11.761 19.9999 11.4931C20.2295 11.2538 20.2869 11.1199 20.2869 10.7754C20.2869 10.1534 20.0286 9.93327 19.0142 9.64619L18.1817 9.41653L18.2008 7.60793L18.2295 5.79933L18.8898 5.55053C19.6841 5.24431 19.952 4.94766 19.9425 4.3735C19.9329 4.04815 19.8659 3.91418 19.6267 3.70365C19.2726 3.38786 18.9472 3.35916 18.2774 3.61753L17.7894 3.79934L17.5214 3.25389C16.7559 1.74194 15.2918 0.574485 13.6171 0.143866C12.8516 -0.0570898 11.5023 -0.0475205 10.7655 0.172574ZM13.8277 2.37352C15.1099 3.00509 15.9903 4.22996 16.1721 5.63665C16.22 6.06727 16.2678 11.5409 16.2678 19.2442V32.1437H12.2487H8.22961V19.2442C8.22961 11.6845 8.27746 6.06727 8.3253 5.65579C8.48798 4.43092 9.10999 3.39743 10.0765 2.72758C10.8899 2.16299 11.4832 1.99074 12.4114 2.02902C13.0525 2.05773 13.2918 2.11514 13.8277 2.37352ZM34.1433 19.1102C34.1529 19.1198 34.306 19.2155 34.4782 19.3208C34.8514 19.5504 35.129 19.56 35.5117 19.359C36.0285 19.1007 36.0763 18.8232 36.0763 16.1629C36.0763 14.8519 36.1146 13.7706 36.1624 13.7706C36.2868 13.7706 36.9471 14.2299 37.3108 14.5648C38.0954 15.3112 38.9567 16.938 39.3682 18.4595C39.7222 19.7992 39.8371 20.8997 39.7796 22.4308C39.6839 24.9954 39.3107 26.1533 37.483 29.5312L36.1242 32.0384L36.0763 29.3494L36.0285 26.67L35.7127 26.3925C35.3108 26.0289 34.7749 26.0097 34.3825 26.3446L34.1146 26.5743L34.0668 29.3686L34.0189 32.1532L32.7558 29.8279C31.1768 26.9092 31.1673 26.8805 30.8706 25.9619C30.4974 24.804 30.3443 23.9045 30.2773 22.4786C30.1146 18.8806 31.4065 15.3974 33.416 14.0576L34.0189 13.6557L34.0668 16.3734C34.0955 17.8567 34.1337 19.0911 34.1433 19.1102ZM29.4256 15.9907C28.641 17.694 28.2869 19.493 28.2869 21.8566C28.2869 23.6652 28.3826 24.5073 28.7558 25.9714C29.0716 27.1676 29.4065 27.9427 30.507 29.9618C31.0237 30.9283 31.5022 31.8087 31.5692 31.9236C31.6649 32.1054 31.6553 32.1437 31.5405 32.1437C31.3682 32.1437 28.1816 28.5743 27.5788 27.7131C26.9855 26.8614 26.5357 25.8758 26.2486 24.804C25.9137 23.5313 25.8946 21.7801 26.2008 20.5361C26.6505 18.7275 27.5022 17.2634 28.8611 15.9811C29.3108 15.5505 29.7032 15.2155 29.7223 15.2347C29.7414 15.2538 29.617 15.5983 29.4256 15.9907ZM41.3777 16.1342C44.1432 18.871 44.8801 22.9667 43.215 26.4499C42.7174 27.493 42.3155 28.0384 40.6696 29.8949C38.7844 32.0288 38.66 32.1532 38.5165 32.1245C38.4304 32.1054 38.5356 31.8374 38.8706 31.2346C41.1672 27.1198 41.6744 25.5982 41.7892 22.5743C41.8849 20.048 41.4925 17.8854 40.5643 15.7993L40.2868 15.1964L40.5548 15.3782C40.6983 15.4835 41.0715 15.8184 41.3777 16.1342ZM47.0523 36.4211C46.9949 38.9953 46.9088 39.579 46.4112 40.9666C45.9614 42.201 45.2724 43.2441 44.2198 44.2967C42.6026 45.8852 40.6983 46.7751 38.4591 46.9761C37.1194 47.0909 11.9329 47.1005 10.6219 46.9857C8.23918 46.7656 6.33489 45.8852 4.68896 44.2106C3.72246 43.2441 3.00476 42.134 2.58371 40.9666C2.08611 39.579 1.99999 38.9953 1.94257 36.4211L1.88515 34.0575H24.4974H47.1097L47.0523 36.4211Z" fill="white"/>
</svg>
