<svg width="49" height="49" viewBox="0 0 49 49" fill="none" xmlns="http://www.w3.org/2000/svg">
<path d="M6.83508 0.0404258C6.31159 0.178708 6.2622 0.435517 6.1338 3.47772C5.97576 7.22121 6.15355 9.77943 6.77582 12.6537C7.24005 14.8267 8.0895 17.4047 8.93895 19.232C9.176 19.7456 9.34392 20.1605 9.30441 20.1407C9.2649 20.1111 7.40797 19.311 5.16582 18.3529C2.42981 17.1874 0.987729 16.6145 0.750674 16.6145C0.276564 16.6145 0 16.901 0 17.3948C0 17.7306 0.25681 18.106 2.70638 21.3655C4.19785 23.3409 5.7387 25.3164 6.1338 25.751C7.47711 27.2227 9.34392 28.8525 10.6477 29.7019L11.0626 29.9785V30.7983V31.628H9.67974C8.42533 31.628 8.27717 31.6477 8.09938 31.8255C7.91171 32.0132 7.90183 32.1515 7.90183 36.7839C7.90183 42.2955 7.92159 42.4733 8.79079 44.2215C9.85753 46.3748 11.6256 47.8761 14.0257 48.6762L14.8653 48.9626L24.15 48.9923C32.3778 49.012 33.5235 49.0021 34.2248 48.8639C36.8719 48.3305 39.1832 46.4736 40.3487 43.9351C40.9512 42.651 41.0303 42.1868 41.0895 39.599L41.1389 37.2482L44.2996 41.772C46.038 44.261 47.5394 46.3748 47.6382 46.4637C47.7369 46.5723 47.9542 46.6415 48.2012 46.6415C48.7148 46.6415 48.9914 46.3748 48.9914 45.8908C48.9914 45.4562 42.8576 30.6501 42.2452 29.6031C41.2377 27.8746 39.282 26.5412 37.2571 26.1856L36.5361 26.0671L36.8127 25.83C37.2275 25.4843 38.393 24.9312 39.0647 24.7633C39.8154 24.5756 41.2772 24.5756 42.0279 24.7633C43.3712 25.0991 43.9539 25.5041 45.9393 27.4499C47.7271 29.2081 47.7962 29.2574 48.1913 29.2574C49.0802 29.2574 49.1889 28.6944 48.6456 27.0252C47.4999 23.5187 45.1293 21.1877 41.6229 20.1012C40.7932 19.8444 40.6352 19.8345 38.8177 19.8345C36.9904 19.8345 36.8423 19.8444 36.0027 20.1111C35.0841 20.3876 33.7902 20.9704 33.1976 21.3655L32.8617 21.5927L33.2371 20.9111C35.015 17.701 37.3263 14.0958 39.1931 11.6265C40.2697 10.1943 41.3562 9.59176 42.8674 9.59176C43.8848 9.59176 44.4083 9.79918 46.2751 10.9252C47.9937 11.9524 48.3888 12.0808 48.7938 11.6759C49.1 11.3697 49.0407 10.8857 48.537 9.72017C47.9542 8.33735 47.4505 7.58667 46.5813 6.76686C45.159 5.42355 43.786 4.86054 41.7612 4.78152C39.7956 4.71238 38.3733 5.14698 36.862 6.29275C35.7657 7.12244 33.6025 9.64115 32.2 11.7253C30.7184 13.9279 30.0467 15.2317 28.5059 18.8863C27.9824 20.1111 27.5576 21.0297 27.5576 20.9408C27.5576 20.6148 28.5454 16.8318 28.9997 15.4786C30.6097 10.5894 32.6938 6.41128 35.5977 2.24306C36.2101 1.36398 36.3484 1.0973 36.3484 0.7911C36.3484 0.158953 36.1212 0.0206713 35.0249 0.0206713C31.5283 0.0206713 27.6169 1.85785 25.2661 4.61361C22.8067 7.49778 20.6732 12.5945 20.0015 17.1479L19.8731 18.0467L19.8632 16.9602C19.8534 15.7058 19.8929 15.4292 20.9399 9.76955C21.3745 7.43851 21.73 5.35441 21.73 5.14698C21.73 4.62349 21.4633 4.36668 20.9201 4.36668C20.5349 4.36668 20.4559 4.41606 19.9126 4.97907C17.6803 7.34962 16.0506 10.4807 15.3493 13.7896C15.0036 15.3799 14.9048 18.6591 15.1518 20.2592C15.2407 20.8222 15.2999 21.3062 15.2802 21.3161C15.2703 21.326 13.6208 16.6935 11.6157 11.0042C9.6106 5.3149 7.91171 0.544168 7.84257 0.405885C7.67465 0.0700577 7.26968 -0.0781016 6.83508 0.0404258ZM33.7211 1.91711C33.6816 1.98625 33.484 2.29245 33.2865 2.58877C29.3849 8.46575 26.5008 16.0318 25.4439 23.1829C25.1673 25.0003 24.6932 30.2254 24.6932 31.4107C24.6932 31.5885 24.6438 31.6379 24.4858 31.6082C24.308 31.5885 24.0413 30.986 22.7968 27.8746L21.3152 24.1706L21.3745 21.7013C21.4831 17.6714 21.8979 15.2514 22.9548 12.3475C24.0808 9.23618 25.5229 6.76686 27.1527 5.15686C28.5355 3.78392 30.0467 2.84558 31.8543 2.26282C33.1877 1.81834 33.8495 1.69981 33.7211 1.91711ZM10.865 13.997C12.3466 18.1751 13.6405 21.8396 13.7393 22.126C13.8578 22.4619 13.8776 22.6199 13.7986 22.5705C13.7294 22.531 13.3541 22.2841 12.9491 22.0273C12.554 21.7705 12.1886 21.5532 12.1491 21.5532C12.0404 21.5532 11.6157 20.8124 10.9045 19.3802C8.93895 15.4194 7.93146 11.3104 7.75367 6.58907L7.70429 5.10747L7.94134 5.7495C8.06974 6.10508 9.38342 9.80906 10.865 13.997ZM42.8971 6.58907C43.9934 6.87551 45.1886 7.62618 45.88 8.46575L46.2356 8.90035L45.8109 8.6633C44.9911 8.18919 43.9342 7.9225 42.8872 7.9225C41.7809 7.9225 41.0303 8.09041 40.1117 8.54477C38.8968 9.13741 37.9881 10.1943 35.4891 13.918C32.5555 18.3035 30.5208 22.0767 27.7453 28.3389C27.0144 29.9785 26.4119 31.302 26.402 31.2922C26.3822 31.2823 26.4415 30.4526 26.5106 29.4451L26.6489 27.6277L28.7429 22.689C31.5579 16.0219 32.1407 14.8267 33.7606 12.4661C35.1631 10.4215 37.267 8.05091 38.3041 7.3595C39.203 6.75698 40.2598 6.44091 41.3858 6.44091C41.9093 6.44091 42.581 6.51005 42.8971 6.58907ZM18.9249 11.4092C18.1742 15.4391 18.1446 15.7552 18.2038 17.9479C18.2927 20.9309 18.4508 21.5136 20.6732 27.0844C21.5918 29.3957 22.3721 31.3613 22.3918 31.4502C22.4313 31.5885 22.3819 31.628 22.1548 31.628C21.8881 31.628 21.8189 31.5588 21.5325 31.0156C20.9497 29.9192 19.6953 28.1413 18.6878 26.9758L17.71 25.83L17.226 22.7779C16.7519 19.7752 16.742 19.6863 16.742 17.5035C16.7519 15.0638 16.8605 14.2637 17.4828 12.3574C17.9372 10.9845 19.2706 8.29784 19.4286 8.446C19.4484 8.47563 19.2212 9.80906 18.9249 11.4092ZM6.81533 20.9111C8.41545 21.5927 10.1045 22.3631 10.5687 22.61C12.3861 23.5879 14.2628 24.9411 15.853 26.4325C16.4753 27.0153 16.5148 27.0647 16.2185 26.9758C16.0308 26.9066 15.4777 26.877 14.9345 26.9066C14.1146 26.9363 13.8776 26.9857 13.3343 27.2425C12.9788 27.4104 12.475 27.7363 12.2182 27.9734L11.7441 28.3981L11.428 28.1709C9.70937 26.9264 8.09938 25.4547 6.96349 24.1015C6.31159 23.3311 3.73362 19.953 3.51631 19.6073C3.42742 19.4493 3.25951 19.3802 6.81533 20.9111ZM40.7636 21.6618C42.2254 21.9779 43.6774 22.7779 44.8725 23.904C45.2972 24.3188 45.3565 24.5163 44.9713 24.2398C44.3787 23.8249 43.2131 23.3113 42.3933 23.1236C41.1488 22.8174 39.203 22.8866 38.0769 23.2718C36.625 23.7657 35.3706 24.6151 34.452 25.7411C34.1458 26.1165 33.3457 27.4499 32.4963 29.0006L31.0641 31.628H29.6121H28.1602L28.2984 31.302C28.3676 31.1341 28.9503 29.8303 29.5825 28.4179C30.2146 27.0054 30.8073 25.6917 30.8863 25.5041C31.074 25.0497 33.6124 23.0743 34.8372 22.4224C36.6744 21.4445 38.6202 21.1877 40.7636 21.6618ZM37.7115 28.0129C39.0054 28.4771 40.2697 29.4945 40.8327 30.5316C41.129 31.0946 44.27 38.552 44.2206 38.6014C44.2009 38.6211 43.2428 37.2679 42.0772 35.6085C39.7462 32.2799 39.4696 31.9144 38.5807 31.1638C37.6028 30.3341 35.5187 29.3562 34.7187 29.3562C34.3335 29.3562 34.3433 29.1982 34.7285 28.4673C35.094 27.7857 35.1039 27.7857 35.5484 27.7561C36.2003 27.7166 37.2176 27.8351 37.7115 28.0129ZM16.2481 28.8031C16.5247 28.9315 16.821 29.129 16.9198 29.2377C17.1075 29.4352 17.0976 29.4649 16.5642 30.7588C15.5765 33.1195 14.8653 35.7369 14.4702 38.3939C14.3813 38.9866 14.3023 39.4903 14.2826 39.5101C14.2431 39.5397 13.4924 36.8531 13.3343 36.1222C13.0677 34.8875 12.8306 33.0306 12.7713 31.6774C12.7022 29.9686 12.7417 29.8303 13.4726 29.1883C14.006 28.7241 14.3715 28.5858 15.1616 28.5759C15.5962 28.566 15.8926 28.6352 16.2481 28.8031ZM19.8534 31.549C19.8534 31.5984 19.4484 31.628 18.9545 31.628C18.1446 31.628 18.0557 31.6082 18.1248 31.4601C18.1545 31.3613 18.3322 30.9662 18.5002 30.5711L18.8162 29.8698L19.3299 30.6699C19.6163 31.1144 19.8534 31.5095 19.8534 31.549ZM34.7187 31.0749C35.0446 31.1539 35.5089 31.3119 35.7558 31.4206L36.2003 31.6181H34.6001L33 31.628L33.1976 31.2823C33.3754 30.986 33.4544 30.9366 33.7606 30.9366C33.968 30.9366 34.3927 31.0057 34.7187 31.0749ZM11.2008 33.5244C11.2305 33.7022 11.3095 34.206 11.3688 34.6406C11.7441 37.3667 12.8701 41.0707 14.0356 43.3918C14.4307 44.1919 14.5295 44.2709 15.0727 44.2709C15.4876 44.2709 15.8037 43.9845 15.8037 43.5993C15.8135 43.4511 15.853 42.5128 15.9024 41.5053C16.0308 38.8483 16.3568 36.8531 17.0581 34.4628L17.4334 33.2084H27.8638H38.2942L38.9066 34.0677L39.5289 34.9369L39.4795 38.0976C39.44 40.9028 39.4104 41.3472 39.2326 42.0288C38.8968 43.2634 38.3041 44.3006 37.3855 45.2191C36.1311 46.4834 34.7483 47.1551 33 47.3428C31.8938 47.4514 17.0976 47.4514 15.9913 47.3428C14.2727 47.1551 12.8701 46.4933 11.6453 45.2685C10.4107 44.024 9.73901 42.6115 9.57109 40.8633C9.52171 40.3793 9.4822 38.4532 9.4822 36.5864V33.2084H10.3218H11.1515L11.2008 33.5244Z" fill="#3E8847"/>
</svg>
